<svg xmlns="http://www.w3.org/2000/svg" viewBox="0 0 64 64" width="64" height="64" fill="none" stroke="none" stroke-width="2.3" stroke-linecap="round" stroke-linejoin="round" color="#5b5963" role="img" aria-label="Broken Spell Frame">
  <title>Broken Spell Frame</title>
  <g stroke="currentColor">
  <rect x="12" y="14" width="40" height="36" rx="5"></rect>
  <polyline points="12 20 16 20 16 14" opacity="0.42"></polyline>
  <polyline points="52 44 48 44 48 50" opacity="0.42"></polyline>
  </g>
  <polyline points="30 13 33 28 26 34 32 51" stroke="#c4622f"></polyline>
  <g stroke="#b88a36">
  <polyline points="27 26 31 22 31 30"></polyline>
  <polyline points="37 26 33 30 33 22"></polyline>
  </g>
  <g fill="#b88a36" stroke="none">
  <path d="M44 20 l1.7 1.7 -1.7 1.7 -1.7 -1.7 z"></path>
  <circle cx="19" cy="42" r="1.3"></circle>
  <path d="M46 41 l1.4 1.4 -1.4 1.4 -1.4 -1.4 z"></path>
  <circle cx="18" cy="22" r="1.1"></circle>
  </g>
</svg>